<svg id="Layer_1" data-name="Layer 1" xmlns="http://www.w3.org/2000/svg" xmlns:xlink="http://www.w3.org/1999/xlink" viewBox="0 0 1426.55 363.06"><defs><linearGradient id="linear-gradient" x1="763.05" y1="263.31" x2="248.09" y2="263.31" gradientTransform="translate(0.99 -0.69) rotate(0.21)" gradientUnits="userSpaceOnUse"><stop offset="0" stop-color="#7fcff5"/><stop offset="1" stop-color="#3da7df"/></linearGradient><linearGradient id="linear-gradient-2" x1="763.05" y1="263.31" x2="248.09" y2="263.31" gradientTransform="translate(3.94 -9.61) rotate(0.84)" xlink:href="#linear-gradient"/><linearGradient id="linear-gradient-3" x1="763.05" y1="164.93" x2="248.09" y2="164.93" gradientTransform="matrix(1, 0, 0, 1, 0, 0)" xlink:href="#linear-gradient"/><linearGradient id="linear-gradient-4" x1="322.68" y1="360.63" x2="449.22" y2="135.67" gradientUnits="userSpaceOnUse"><stop offset="0" stop-color="#e75220"/><stop offset="1" stop-color="#f8b335"/></linearGradient><linearGradient id="linear-gradient-5" x1="763.05" y1="164.93" x2="248.09" y2="164.93" gradientTransform="matrix(1, 0, 0, 1, 0, 0)" xlink:href="#linear-gradient"/></defs><title>ELECTRICAR-AI-CS6</title><circle cx="185.31" cy="263.31" r="53.57" transform="translate(-0.98 0.69) rotate(-0.21)" style="fill:url(#linear-gradient)"/><circle cx="655.86" cy="263.31" r="53.57" transform="translate(-3.8 9.67) rotate(-0.84)" style="fill:url(#linear-gradient-2)"/><path d="M341.76,275.61l11.38-31.75a67.61,67.61,0,0,1-28-112.44L402.3,54.24h-3.38A12.26,12.26,0,0,0,391,57.16L290.43,119.7,99,142.12a12.34,12.34,0,0,0-9.23,6.07l-26.36,45.7a12.33,12.33,0,0,0-.7,10.88L89.11,268a12.3,12.3,0,0,0,11.35,7.57h7.65a78.18,78.18,0,1,1,154.4,0Z" style="fill:url(#linear-gradient-3)"/><path d="M362.12,348.47a14.31,14.31,0,0,1-13.47-19.15l38.41-107.14H372.89a43,43,0,0,1-30.38-73.36l122-122a14.32,14.32,0,0,1,23.89,14.07l-27.33,95.32h15.51A43,43,0,0,1,507,209.59L372.26,344.28A14.29,14.29,0,0,1,362.12,348.47Z" style="fill:url(#linear-gradient-4)"/><path d="M655.86,155.28a12.31,12.31,0,0,1,0-24.61H771L724.6,103.72H574.41a12.3,12.3,0,1,1,0-24.6H682.2L643.55,56.69a12.28,12.28,0,0,0-7.36-2.45h-126l-17,59.43A67.61,67.61,0,0,1,524.35,227l-48.63,48.62H578.66a78.18,78.18,0,1,1,154.4,0h.11a12.27,12.27,0,0,0,9-4L784.4,226a12.35,12.35,0,0,0,3.26-8.35V155.28Z" style="fill:url(#linear-gradient-5)"/><text transform="translate(841.93 268.46)" style="font-size:301.6498718261719px;fill:#37ade4;font-family:Panton-ExtraBold, Panton;font-weight:700">ELR</text></svg>